0
SECTION
2
ENTITIES
0
LINE
8
COUPE
10
5.0000
20
0.0000
11
55.0000
21
0.0000
0
LINE
8
COUPE
10
60.0000
20
5.0000
11
60.0000
21
45.0000
0
LINE
8
COUPE
10
55.0000
20
50.0000
11
5.0000
21
50.0000
0
LINE
8
COUPE
10
0.0000
20
45.0000
11
0.0000
21
5.0000
0
ARC
8
COUPE
10
5.0000
20
5.0000
40
5.0000
50
180.0000
51
270.0000
0
ARC
8
COUPE
10
55.0000
20
5.0000
40
5.0000
50
270.0000
51
360.0000
0
ARC
8
COUPE
10
55.0000
20
45.0000
40
5.0000
50
0.0000
51
90.0000
0
ARC
8
COUPE
10
5.0000
20
45.0000
40
5.0000
50
90.0000
51
180.0000
0
CIRCLE
8
COUPE
10
20.0000
20
10.0000
40
2.7500
0
CIRCLE
8
COUPE
10
40.0000
20
10.0000
40
2.7500
0
ARC
8
COUPE
10
26.0000
20
35.0000
40
2.7500
50
90.0000
51
270.0000
0
ARC
8
COUPE
10
34.0000
20
35.0000
40
2.7500
50
270.0000
51
90.0000
0
LINE
8
COUPE
10
26.0000
20
37.7500
11
34.0000
21
37.7500
0
LINE
8
COUPE
10
26.0000
20
32.2500
11
34.0000
21
32.2500
0
LINE
8
COUPE
10
75.0000
20
0.0000
11
125.0000
21
0.0000
0
LINE
8
COUPE
10
130.0000
20
5.0000
11
130.0000
21
45.0000
0
LINE
8
COUPE
10
125.0000
20
50.0000
11
75.0000
21
50.0000
0
LINE
8
COUPE
10
70.0000
20
45.0000
11
70.0000
21
5.0000
0
ARC
8
COUPE
10
75.0000
20
5.0000
40
5.0000
50
180.0000
51
270.0000
0
ARC
8
COUPE
10
125.0000
20
5.0000
40
5.0000
50
270.0000
51
360.0000
0
ARC
8
COUPE
10
125.0000
20
45.0000
40
5.0000
50
0.0000
51
90.0000
0
ARC
8
COUPE
10
75.0000
20
45.0000
40
5.0000
50
90.0000
51
180.0000
0
CIRCLE
8
COUPE
10
90.0000
20
10.0000
40
2.7500
0
CIRCLE
8
COUPE
10
110.0000
20
10.0000
40
2.7500
0
ARC
8
COUPE
10
96.0000
20
35.0000
40
2.7500
50
90.0000
51
270.0000
0
ARC
8
COUPE
10
104.0000
20
35.0000
40
2.7500
50
270.0000
51
90.0000
0
LINE
8
COUPE
10
96.0000
20
37.7500
11
104.0000
21
37.7500
0
LINE
8
COUPE
10
96.0000
20
32.2500
11
104.0000
21
32.2500
0
LINE
8
COUPE
10
145.0000
20
0.0000
11
195.0000
21
0.0000
0
LINE
8
COUPE
10
200.0000
20
5.0000
11
200.0000
21
45.0000
0
LINE
8
COUPE
10
195.0000
20
50.0000
11
145.0000
21
50.0000
0
LINE
8
COUPE
10
140.0000
20
45.0000
11
140.0000
21
5.0000
0
ARC
8
COUPE
10
145.0000
20
5.0000
40
5.0000
50
180.0000
51
270.0000
0
ARC
8
COUPE
10
195.0000
20
5.0000
40
5.0000
50
270.0000
51
360.0000
0
ARC
8
COUPE
10
195.0000
20
45.0000
40
5.0000
50
0.0000
51
90.0000
0
ARC
8
COUPE
10
145.0000
20
45.0000
40
5.0000
50
90.0000
51
180.0000
0
CIRCLE
8
COUPE
10
160.0000
20
10.0000
40
2.7500
0
CIRCLE
8
COUPE
10
180.0000
20
10.0000
40
2.7500
0
ARC
8
COUPE
10
166.0000
20
35.0000
40
2.7500
50
90.0000
51
270.0000
0
ARC
8
COUPE
10
174.0000
20
35.0000
40
2.7500
50
270.0000
51
90.0000
0
LINE
8
COUPE
10
166.0000
20
37.7500
11
174.0000
21
37.7500
0
LINE
8
COUPE
10
166.0000
20
32.2500
11
174.0000
21
32.2500
0
LINE
8
COUPE
10
5.0000
20
60.0000
11
55.0000
21
60.0000
0
LINE
8
COUPE
10
60.0000
20
65.0000
11
60.0000
21
105.0000
0
LINE
8
COUPE
10
55.0000
20
110.0000
11
5.0000
21
110.0000
0
LINE
8
COUPE
10
0.0000
20
105.0000
11
0.0000
21
65.0000
0
ARC
8
COUPE
10
5.0000
20
65.0000
40
5.0000
50
180.0000
51
270.0000
0
ARC
8
COUPE
10
55.0000
20
65.0000
40
5.0000
50
270.0000
51
360.0000
0
ARC
8
COUPE
10
55.0000
20
105.0000
40
5.0000
50
0.0000
51
90.0000
0
ARC
8
COUPE
10
5.0000
20
105.0000
40
5.0000
50
90.0000
51
180.0000
0
CIRCLE
8
COUPE
10
20.0000
20
70.0000
40
2.7500
0
CIRCLE
8
COUPE
10
40.0000
20
70.0000
40
2.7500
0
ARC
8
COUPE
10
26.0000
20
95.0000
40
2.7500
50
90.0000
51
270.0000
0
ARC
8
COUPE
10
34.0000
20
95.0000
40
2.7500
50
270.0000
51
90.0000
0
LINE
8
COUPE
10
26.0000
20
97.7500
11
34.0000
21
97.7500
0
LINE
8
COUPE
10
26.0000
20
92.2500
11
34.0000
21
92.2500
0
LINE
8
COUPE
10
75.0000
20
60.0000
11
125.0000
21
60.0000
0
LINE
8
COUPE
10
130.0000
20
65.0000
11
130.0000
21
105.0000
0
LINE
8
COUPE
10
125.0000
20
110.0000
11
75.0000
21
110.0000
0
LINE
8
COUPE
10
70.0000
20
105.0000
11
70.0000
21
65.0000
0
ARC
8
COUPE
10
75.0000
20
65.0000
40
5.0000
50
180.0000
51
270.0000
0
ARC
8
COUPE
10
125.0000
20
65.0000
40
5.0000
50
270.0000
51
360.0000
0
ARC
8
COUPE
10
125.0000
20
105.0000
40
5.0000
50
0.0000
51
90.0000
0
ARC
8
COUPE
10
75.0000
20
105.0000
40
5.0000
50
90.0000
51
180.0000
0
CIRCLE
8
COUPE
10
90.0000
20
70.0000
40
2.7500
0
CIRCLE
8
COUPE
10
110.0000
20
70.0000
40
2.7500
0
ARC
8
COUPE
10
96.0000
20
95.0000
40
2.7500
50
90.0000
51
270.0000
0
ARC
8
COUPE
10
104.0000
20
95.0000
40
2.7500
50
270.0000
51
90.0000
0
LINE
8
COUPE
10
96.0000
20
97.7500
11
104.0000
21
97.7500
0
LINE
8
COUPE
10
96.0000
20
92.2500
11
104.0000
21
92.2500
0
LINE
8
COUPE
10
145.0000
20
60.0000
11
195.0000
21
60.0000
0
LINE
8
COUPE
10
200.0000
20
65.0000
11
200.0000
21
105.0000
0
LINE
8
COUPE
10
195.0000
20
110.0000
11
145.0000
21
110.0000
0
LINE
8
COUPE
10
140.0000
20
105.0000
11
140.0000
21
65.0000
0
ARC
8
COUPE
10
145.0000
20
65.0000
40
5.0000
50
180.0000
51
270.0000
0
ARC
8
COUPE
10
195.0000
20
65.0000
40
5.0000
50
270.0000
51
360.0000
0
ARC
8
COUPE
10
195.0000
20
105.0000
40
5.0000
50
0.0000
51
90.0000
0
ARC
8
COUPE
10
145.0000
20
105.0000
40
5.0000
50
90.0000
51
180.0000
0
CIRCLE
8
COUPE
10
160.0000
20
70.0000
40
2.7500
0
CIRCLE
8
COUPE
10
180.0000
20
70.0000
40
2.7500
0
ARC
8
COUPE
10
166.0000
20
95.0000
40
2.7500
50
90.0000
51
270.0000
0
ARC
8
COUPE
10
174.0000
20
95.0000
40
2.7500
50
270.0000
51
90.0000
0
LINE
8
COUPE
10
166.0000
20
97.7500
11
174.0000
21
97.7500
0
LINE
8
COUPE
10
166.0000
20
92.2500
11
174.0000
21
92.2500
0
ENDSEC
0
EOF
