0
SECTION
2
ENTITIES
0
LINE
8
COUPE
10
5.0000
20
0.0000
11
55.0000
21
0.0000
0
LINE
8
COUPE
10
60.0000
20
5.0000
11
60.0000
21
45.0000
0
LINE
8
COUPE
10
55.0000
20
50.0000
11
5.0000
21
50.0000
0
LINE
8
COUPE
10
0.0000
20
45.0000
11
0.0000
21
5.0000
0
ARC
8
COUPE
10
5.0000
20
5.0000
40
5.0000
50
180.0000
51
270.0000
0
ARC
8
COUPE
10
55.0000
20
5.0000
40
5.0000
50
270.0000
51
360.0000
0
ARC
8
COUPE
10
55.0000
20
45.0000
40
5.0000
50
0.0000
51
90.0000
0
ARC
8
COUPE
10
5.0000
20
45.0000
40
5.0000
50
90.0000
51
180.0000
0
CIRCLE
8
COUPE
10
20.0000
20
10.0000
40
2.7500
0
CIRCLE
8
COUPE
10
40.0000
20
10.0000
40
2.7500
0
ARC
8
COUPE
10
26.0000
20
35.0000
40
2.7500
50
90.0000
51
270.0000
0
ARC
8
COUPE
10
34.0000
20
35.0000
40
2.7500
50
270.0000
51
90.0000
0
LINE
8
COUPE
10
26.0000
20
37.7500
11
34.0000
21
37.7500
0
LINE
8
COUPE
10
26.0000
20
32.2500
11
34.0000
21
32.2500
0
ENDSEC
0
EOF
